<?xml version="1.0" standalone="no"?>
<!DOCTYPE svg PUBLIC "-//W3C//DTD SVG 20010904//EN"
        "http://www.w3.org/TR/2001/REC-SVG-20010904/DTD/svg10.dtd">
<svg version="1.0" xmlns="http://www.w3.org/2000/svg"
     width="1024.000000pt" height="1024.000000pt" viewBox="0 0 1024.000000 1024.000000"
     preserveAspectRatio="xMidYMid meet">
    <metadata>
        Created by potrace 1.11, written by Peter Selinger 2001-2013
    </metadata>
    <g transform="translate(0.000000,1024.000000) scale(0.100000,-0.100000)"
       fill="#000000" stroke="none">
        <path d="M4825 10209 c-1022 -53 -2037 -435 -2850 -1073 -304 -238 -623 -557
-866 -866 -905 -1150 -1271 -2648 -999 -4099 250 -1333 1020 -2505 2150 -3273
1551 -1054 3573 -1166 5238 -289 792 417 1464 1038 1933 1786 236 375 405 738
543 1162 256 789 312 1680 156 2512 -266 1419 -1137 2673 -2376 3418 -723 436
-1523 679 -2374 723 -218 11 -322 11 -555 -1z m680 -204 c540 -48 953 -143
1425 -330 1661 -658 2844 -2191 3054 -3960 117 -976 -50 -1927 -491 -2808
-496 -991 -1343 -1799 -2374 -2263 -692 -310 -1466 -455 -2236 -416 -267 13
-410 29 -649 72 -776 141 -1516 474 -2139 964 -297 233 -613 549 -841 841
-439 562 -757 1232 -914 1930 -128 569 -154 1168 -76 1750 142 1056 629 2038
1390 2798 405 404 823 702 1331 948 577 279 1085 414 1790 478 154 14 549 12
730 -4z"/>
        <path d="M2214 8548 c13 -24 79 -144 147 -268 625 -1149 1361 -2396 2081
-3527 l198 -312 0 -1391 0 -1390 485 0 485 0 0 1401 0 1401 155 244 c759 1191
1483 2415 2114 3574 68 124 134 244 147 268 l25 42 -539 0 -539 0 -192 -387
c-346 -698 -637 -1239 -1031 -1913 -269 -459 -588 -980 -601 -980 -7 0 -227
348 -402 636 -235 386 -534 908 -737 1284 -124 232 -522 1020 -623 1238 l-58
122 -570 0 -570 0 25 -42z"/>
    </g>
</svg>
